{"title":"By.the.Sea.2015.WEBRip.HC.480p.x264.AAC-VYTO [P2PDL]","uid":12893260,"size":480533966,"categoryP":"video","categoryS":"movies","magnet":"?xt=urn:btih:2895ca9e50721c1086207f5d1e5ccfe135cc6279&amp;dn=By.the.Sea.2015.WEBRip.HC.480p.x264.AAC-VYTO+%5BP2PDL%5D&amp;tr=udp%3A%2F%2Ftracker.leechers-paradise.org%3A6969&amp;tr=udp%3A%2F%2Fzer0day.ch%3A1337&amp;tr=udp%3A%2F%2Fopen.demonii.com%3A1337&amp;tr=udp%3A%2F%2Ftracker.coppersurfer.tk%3A6969&amp;tr=udp%3A%2F%2Fexodus.desync.com%3A6969","seeders":0,"leechers":4,"uploader":"VYTOP2PDL","files":6,"time":1449151550,"description":"____    ____ ____    ____ .___________.  ______   \r\n     /   /      /   / |           | /  __    \r\n    /   /      /   /  `---|  |----`|  |  |  | \r\n        /     _    _/       |  |     |  |  |  | \r\n       /        |  |         |  |     |  `--'  | \r\n    __/         |__|         |__|      ______/  \r\n                                                  \r\nPresenting Small Encodes with quality for years!\r\n                                                                                                   \r\n                                                                                                   \r\n\r\nBy.the.Sea.2015.WEBRip.HC.480p.x264.AAC-VYTO\r\n\r\n\r\nGenre: Drama, Romance    \nhttp://www.imdb.com/title/tt3707106/\r\n\r\n\r\nGeneral\r\nFormat                        : MPEG-4\r\nFile size                      : 452 MiB\r\nDuration                       : 1h 59mn\r\nOverall bit rate               : 529 Kbps\r\n\r\nVideo\r\nFormat                         : AVC\r\nBit rate                       : 494 Kbps\r\nWidth                          : 720 pixels\r\nHeight                         : 304 pixels\r\nDisplay aspect ratio           : 2.35:1\r\nFrame rate mode                : Constant\r\nFrame rate                     : 23.976 fps\r\nBit depth                      : 8 bit\r\nStream size                    : 422 MiB (93%)\r\nWriting library                : x264\r\n\r\nAudio\r\nFormat                         : AAC\r\nBit rate                       : 32.0 Kbps\r\nChannel(s)                     : 2 channels \r\nChannel positions              : Front: L R \r\nSampling rate                  : 48.0 KHz \r\nStream size                    : 27.3 MiB (6%)\r\n\r\nSubtitle                       : Yes(Hard Coded Chinese)\r\n \nhttp://ititli.com/m5 \nhttp://ititli.com/mB \nhttp://ititli.com/mN \nhttp://ititli.com/mP \nhttp://ititli.com/mf \nhttp://ititli.com/mu \nhttp://ititli.com/mv \nhttp://ititli.com/mR \nhttp://ititli.com/my\r\n\r\n----------------------------------------------------------------------------------------------------\r\n\r\n\r\nEncoder Notes: Looking For Early Access To Anything You Can Provide DVDScr, R5, DVDR, BluRay, Direct\r\nAudio, Music Releases and Seedboxes. If You Got anything to offer please contact us.\r\n\r\nSupport us by donating BC - 1FgwdzPsd1y25Gea8wP1qni35uGCtmkRCD","torrent":{"xt":"urn:btih:2895ca9e50721c1086207f5d1e5ccfe135cc6279","amp;dn":"By.the.Sea.2015.WEBRip.HC.480p.x264.AAC-VYTO+%5BP2PDL%5D","amp;tr":["udp%3A%2F%2Ftracker.leechers-paradise.org%3A6969","udp%3A%2F%2Fzer0day.ch%3A1337","udp%3A%2F%2Fopen.demonii.com%3A1337","udp%3A%2F%2Ftracker.coppersurfer.tk%3A6969","udp%3A%2F%2Fexodus.desync.com%3A6969"],"infoHash":"2895ca9e50721c1086207f5d1e5ccfe135cc6279","infoHashBuffer":{"type":"Buffer","data":[40,149,202,158,80,114,28,16,134,32,127,93,30,92,207,225,53,204,98,121]},"announce":[],"urlList":[]}}